<?xml version="1.0" standalone="no"?>
<!DOCTYPE svg PUBLIC "-//W3C//DTD SVG 20010904//EN"
 "http://www.w3.org/TR/2001/REC-SVG-20010904/DTD/svg10.dtd">
<svg version="1.0" xmlns="http://www.w3.org/2000/svg"
 width="1800.000000pt" height="1800.000000pt" viewBox="0 0 1800.000000 1800.000000"
 preserveAspectRatio="xMidYMid meet">
<g transform="translate(0.000000,1800.000000) scale(0.100000,-0.100000)"
fill="#f8f3ec" stroke="none">
<path d="M8870 13569 c-30 -4 -100 -13 -155 -19 -55 -6 -143 -20 -195 -31 -52
-11 -121 -24 -152 -29 -31 -4 -72 -13 -90 -19 -18 -5 -61 -17 -95 -25 -278
-70 -460 -133 -758 -263 -277 -121 -500 -245 -780 -432 -104 -70 -338 -243
-360 -266 -5 -6 -43 -38 -84 -71 -120 -96 -529 -511 -566 -574 -5 -10 -28 -38
-50 -63 -73 -83 -264 -363 -374 -546 -31 -53 -92 -168 -135 -256 -43 -88 -83
-167 -87 -175 -5 -8 -12 -22 -15 -30 -3 -8 -25 -62 -49 -120 -86 -210 -167
-456 -209 -642 -51 -221 -58 -258 -81 -428 -71 -521 -62 -955 29 -1460 18
-101 39 -198 55 -260 38 -142 75 -269 86 -300 7 -19 20 -60 30 -90 34 -110
146 -394 185 -470 5 -8 39 -76 76 -150 76 -152 138 -258 260 -439 115 -173
137 -202 234 -324 107 -134 126 -132 72 6 -16 40 -37 99 -47 132 -9 33 -21 70
-26 82 -15 40 -33 121 -95 443 -17 83 -19 144 -18 490 0 358 2 406 22 510 57
308 94 448 177 670 20 52 40 106 44 120 10 31 44 104 122 267 258 533 724
1102 1208 1474 179 137 356 257 486 329 33 18 76 43 95 55 152 94 434 226 975
456 306 130 327 139 465 208 138 69 229 119 251 137 8 8 19 14 22 14 4 0 26
12 50 27 23 15 50 32 59 38 66 39 202 144 344 266 149 129 339 350 419 487 6
9 23 36 37 59 39 60 142 277 168 353 12 36 28 94 36 130 8 36 22 97 31 135 17
75 21 348 6 415 -8 32 -14 37 -63 51 -157 47 -444 96 -730 124 -169 16 -730
19 -830 4z"/>
<path d="M11459 13018 c0 -2 -1 -70 -3 -153 -2 -158 -6 -175 -69 -355 -26 -75
-117 -262 -180 -373 -85 -151 -339 -438 -522 -591 -147 -123 -319 -248 -380
-277 -11 -5 -38 -20 -60 -33 -181 -106 -366 -193 -595 -281 -42 -16 -190 -72
-240 -90 -19 -7 -71 -26 -115 -42 -44 -17 -120 -45 -170 -62 -113 -40 -144
-52 -225 -86 -36 -15 -99 -40 -140 -55 -90 -34 -367 -172 -500 -248 -323 -188
-600 -423 -861 -732 -157 -186 -387 -570 -452 -755 -74 -209 -128 -417 -148
-570 -4 -33 -12 -80 -18 -105 -6 -25 -10 -165 -10 -320 0 -350 18 -498 106
-835 76 -292 254 -710 419 -982 24 -39 44 -74 44 -77 0 -3 34 -56 75 -116 42
-61 73 -115 70 -121 -6 -9 -97 50 -198 130 -32 25 -73 58 -92 72 -74 57 -382
379 -435 455 -8 12 -33 46 -56 75 -47 62 -174 247 -174 253 0 2 -20 39 -46 81
-60 102 -172 328 -219 440 -20 50 -44 107 -53 128 -8 21 -20 36 -26 34 -30
-10 -65 -307 -62 -522 5 -298 32 -459 127 -745 111 -336 246 -592 446 -840 85
-107 246 -268 341 -344 190 -150 473 -320 687 -411 43 -18 184 -75 225 -90
179 -68 527 -148 774 -180 254 -32 760 -30 1021 5 281 37 479 87 385 98 -154
18 -497 105 -545 138 -11 8 -25 14 -32 14 -20 0 -210 89 -291 137 -41 24 -76
43 -79 43 -10 0 -167 112 -253 181 -157 125 -340 329 -465 519 -157 238 -298
594 -356 900 -27 144 -28 733 -1 850 5 25 18 81 27 125 45 208 109 400 195
580 176 371 433 703 750 967 140 117 493 327 527 314 9 -4 -34 -53 -124 -144
-159 -159 -192 -198 -298 -346 -148 -208 -304 -489 -365 -656 -45 -123 -95
-293 -113 -385 -50 -254 -49 -235 -44 -566 2 -179 9 -331 15 -354 6 -22 18
-74 27 -115 57 -260 181 -545 339 -780 188 -278 454 -527 726 -678 240 -133
405 -191 700 -246 119 -22 584 -23 702 -1 185 35 354 80 443 119 17 7 46 20
65 29 72 31 226 111 265 137 22 15 47 30 55 33 8 4 27 15 41 25 145 95 159
106 159 125 0 15 -5 18 -22 13 -67 -20 -295 -36 -498 -36 -316 1 -557 26 -756
81 -43 12 -92 25 -109 29 -232 56 -549 215 -755 379 -252 200 -434 455 -506
711 -28 95 -28 445 0 540 55 196 209 385 380 468 112 54 292 67 456 31 139
-30 152 -33 305 -73 199 -53 283 -66 422 -66 208 0 307 39 376 149 19 31 22
49 21 136 -1 69 -6 114 -18 145 -23 58 -32 183 -17 236 8 31 36 68 112 147 83
88 101 112 102 139 2 62 -11 78 -89 114 -41 19 -74 39 -74 44 0 5 32 26 72 46
93 47 177 110 184 140 8 33 -3 62 -48 121 -66 87 -73 171 -19 242 26 34 139
113 189 132 14 6 56 30 93 54 125 83 118 148 -26 250 -49 36 -168 138 -214
185 -80 81 -251 320 -251 350 0 6 -9 28 -19 48 -59 115 -91 274 -91 447 0 183
17 280 86 490 30 93 44 130 119 305 45 107 81 202 99 260 10 30 23 71 31 90
16 43 39 149 57 255 17 106 17 440 0 520 -39 178 -94 305 -175 405 -62 76
-153 150 -158 128z m-609 -1819 c0 -16 -73 -119 -182 -257 -86 -107 -363 -396
-463 -483 -122 -104 -416 -304 -600 -407 -49 -27 -106 -59 -125 -70 -34 -20
-73 -41 -170 -94 -25 -14 -81 -44 -125 -68 -44 -24 -91 -51 -105 -60 -14 -9
-32 -20 -40 -24 -17 -8 -31 -16 -115 -70 -145 -93 -232 -155 -361 -258 -91
-73 -252 -230 -348 -338 -92 -103 -133 -156 -230 -294 -58 -82 -167 -267 -202
-343 -97 -211 -114 -254 -179 -448 -41 -123 -72 -238 -91 -340 -32 -175 -46
-286 -53 -410 -3 -71 -10 -130 -15 -130 -10 0 -37 89 -60 195 -45 216 -49 262
-50 520 -1 270 12 382 65 580 37 141 60 205 123 348 53 120 87 179 195 342
213 323 503 592 881 817 118 71 467 241 670 328 102 43 194 85 205 92 11 7 25
13 32 13 15 0 431 204 515 252 294 170 531 343 723 530 89 86 105 98 105 77z"/>
<path d="M12100 12550 c0 -5 9 -49 21 -97 18 -77 20 -108 15 -248 -3 -88 -8
-183 -12 -211 -8 -70 3 -87 134 -221 118 -120 223 -238 287 -321 22 -29 55
-72 74 -95 40 -50 176 -257 248 -377 213 -356 335 -665 451 -1135 13 -52 46
-231 69 -370 26 -159 26 -856 0 -1020 -35 -218 -63 -360 -92 -465 -7 -25 -20
-74 -30 -110 -15 -56 -49 -161 -96 -300 -23 -69 -42 -116 -64 -165 -13 -27
-34 -77 -48 -110 -102 -242 -367 -650 -566 -870 -300 -332 -512 -503 -801
-645 -115 -56 -137 -66 -193 -86 -84 -30 -54 -39 129 -39 244 0 591 44 794
100 177 49 165 43 268 150 97 102 268 302 312 365 13 19 40 55 60 80 37 46
144 213 241 375 74 123 249 478 249 504 0 5 14 42 31 82 17 41 37 91 45 112 8
20 20 54 28 75 23 61 57 172 77 247 140 546 157 681 159 1234 1 168 -3 358 -9
421 -10 106 -17 152 -51 360 -7 41 -24 118 -38 170 -13 52 -28 111 -32 130
-21 95 -75 284 -104 360 -8 19 -21 53 -29 75 -9 22 -30 81 -48 130 -46 129
-165 382 -231 492 -21 35 -38 65 -38 68 0 3 -12 24 -27 48 -15 23 -32 50 -38
59 -203 344 -544 760 -839 1025 -66 59 -127 115 -135 123 -9 8 -44 36 -78 63
-58 45 -93 59 -93 37z"/>
</g>
</svg>
